<svg width="24" height="22" viewBox="0 0 24 22" fill="none" xmlns="http://www.w3.org/2000/svg">
<path d="M17.3657 0.017362C19.1415 0.017362 20.8052 0.79865 22.0619 2.22812C23.3187 3.65758 24.0055 5.55582 24.0005 7.5756C24.0005 9.59537 23.3085 10.4936 22.0518 11.9231L12.4762 19.7743C12.3439 19.9248 12.1658 20 11.9929 20C11.8199 20 11.6418 19.919 11.5095 19.7685L1.9543 11.8999C0.697568 10.4705 0.000516142 9.57801 0.000516142 7.55824C-0.00457183 5.53846 0.687392 3.64022 1.94412 2.21075C3.19576 0.787075 4.86461 0 6.63523 0C8.41093 0 10.0849 0.792862 11.3416 2.22233L12.0081 2.98047L12.6645 2.2339C13.9212 0.804437 15.59 0.017362 17.3657 0.017362Z" fill="black" fill-opacity="0.1"/>
</svg>
