<svg width="472" height="415" viewBox="0 0 472 415" fill="none" xmlns="http://www.w3.org/2000/svg">
<g clip-path="url(#clip0)">
<path d="M433.601 38.5C408.901 13.8 376.201 0.300001 341.301 0.300001C306.401 0.300001 273.601 13.9 248.901 38.6L236.001 51.5L222.901 38.4C198.201 13.7 165.301 0 130.401 0C95.601 0 62.801 13.6 38.201 38.2C13.501 62.9 -0.0989641 95.7 0.00103585 130.6C0.00103585 165.5 13.701 198.2 38.401 222.9L226.201 410.7C228.801 413.3 232.301 414.7 235.701 414.7C239.101 414.7 242.601 413.4 245.201 410.8L433.401 223.3C458.101 198.6 471.701 165.8 471.701 130.9C471.801 96 458.301 63.2 433.601 38.5ZM414.401 204.2L235.701 382.2L57.401 203.9C37.801 184.3 27.001 158.3 27.001 130.6C27.001 102.9 37.701 76.9 57.301 57.4C76.801 37.9 102.801 27.1 130.401 27.1C158.101 27.1 184.201 37.9 203.801 57.5L226.401 80.1C231.701 85.4 240.201 85.4 245.501 80.1L267.901 57.7C287.501 38.1 313.601 27.3 341.201 27.3C368.801 27.3 394.801 38.1 414.401 57.6C434.001 77.2 444.701 103.2 444.701 130.9C444.801 158.6 434.001 184.6 414.401 204.2Z" fill="black"/>
</g>
<defs>
<clipPath id="clip0">
<rect width="471.701" height="471.701" fill="white"/>
</clipPath>
</defs>
</svg>
