<svg width="472" height="415" viewBox="0 0 472 415" fill="none" xmlns="http://www.w3.org/2000/svg">
<g clip-path="url(#clip0)">
<path d="M341.301 0.300001C376.201 0.300001 408.901 13.8 433.601 38.5C458.301 63.2 471.801 96 471.701 130.9C471.701 165.8 458.101 198.6 433.401 223.3L245.201 410.8C242.601 413.4 239.101 414.7 235.701 414.7C232.301 414.7 228.801 413.3 226.201 410.7L38.401 222.9C13.701 198.2 0.00103585 165.5 0.00103585 130.6C-0.0989641 95.7 13.501 62.9 38.201 38.2C62.801 13.6 95.601 0 130.401 0C165.301 0 198.201 13.7 222.901 38.4L236.001 51.5L248.901 38.6C273.601 13.9 306.401 0.300001 341.301 0.300001Z" fill="black"/>
</g>
<defs>
<clipPath id="clip0">
<rect width="471.701" height="471.701" fill="white"/>
</clipPath>
</defs>
</svg>
