<svg width="24" height="24" viewBox="0 0 24 24" fill="none" xmlns="http://www.w3.org/2000/svg">
<path d="M22.0619 2.22812C20.8052 0.79865 19.1415 0.017362 17.3658 0.017362C15.59 0.017362 13.9212 0.804437 12.6645 2.2339L12.0081 2.98047L11.3416 2.22233C10.0849 0.792862 8.41093 0 6.63523 0C4.86461 0 3.19576 0.787075 1.94412 2.21075C0.687392 3.64022 -0.00457183 5.53846 0.000516142 7.55824C0.000516142 9.57801 0.697568 11.4705 1.9543 12.8999L11.5095 23.7685C11.6418 23.919 11.8199 24 11.9929 24C12.1658 24 12.3439 23.9248 12.4762 23.7743L22.0518 12.9231C23.3085 11.4936 24.0005 9.59537 24.0005 7.5756C24.0055 5.55582 23.3187 3.65758 22.0619 2.22812ZM21.0851 11.8177L11.9929 22.1191L2.92101 11.8003C1.92377 10.666 1.37427 9.16132 1.37427 7.55824C1.37427 5.95515 1.91868 4.45045 2.91592 3.32192C3.90808 2.19339 5.23095 1.56836 6.63523 1.56836C8.04459 1.56836 9.37255 2.19339 10.3698 3.32771L11.5197 4.63564C11.7893 4.94237 12.2218 4.94237 12.4915 4.63564L13.6312 3.33928C14.6284 2.20497 15.9564 1.57994 17.3607 1.57994C18.7649 1.57994 20.0878 2.20497 21.0851 3.33349C22.0823 4.46781 22.6267 5.97251 22.6267 7.5756C22.6318 9.17868 22.0823 10.6834 21.0851 11.8177Z" fill="black"/>
</svg>
